<?xml version="1.0" standalone="no"?>
<!DOCTYPE svg PUBLIC "-//W3C//DTD SVG 20010904//EN"
 "http://www.w3.org/TR/2001/REC-SVG-20010904/DTD/svg10.dtd">
<svg version="1.0" xmlns="http://www.w3.org/2000/svg"
 width="429.000000pt" height="429.000000pt" viewBox="0 0 429.000000 429.000000"
 preserveAspectRatio="xMidYMid meet">
<metadata>
Created by potrace 1.14, written by Peter Selinger 2001-2017
</metadata>
<g transform="translate(0.000000,429.000000) scale(0.100000,-0.100000)"
fill="#000000" stroke="none">
<path d="M3355 3253 c-559 -73 -833 -237 -852 -510 -10 -136 39 -258 143 -360
67 -66 121 -103 249 -173 145 -78 339 -191 423 -246 145 -96 192 -148 192
-219 0 -160 -289 -288 -792 -350 -163 -20 -254 -19 -368 5 -124 26 -184 26
-209 1 -46 -46 -67 -210 -35 -276 39 -82 195 -145 363 -145 173 0 493 84 807
213 449 184 651 402 631 683 -10 148 -68 263 -189 381 -88 85 -139 118 -334
217 -246 124 -366 213 -380 283 -5 26 0 37 31 72 73 81 208 118 387 108 144
-9 244 -37 398 -111 143 -69 228 -73 296 -14 109 96 78 193 -99 316 -133 92
-291 133 -506 131 -69 -1 -139 -4 -156 -6z"/>
<path d="M203 3133 c-16 -6 -17 -54 -1 -90 46 -107 134 -159 359 -212 90 -21
197 -44 237 -51 39 -7 72 -16 72 -20 0 -4 -12 -39 -26 -76 -143 -375 -213
-868 -170 -1194 24 -176 41 -257 89 -402 l42 -126 51 21 52 21 12 91 c78 599
220 1126 419 1559 37 79 43 88 64 83 12 -3 104 -11 203 -18 213 -14 294 -6
391 42 73 35 144 109 169 175 16 42 16 48 1 72 -14 24 -24 28 -84 34 -568 54
-832 72 -1263 88 -288 10 -596 12 -617 3z"/>
</g>
</svg>
